<?xml version="1.0" standalone="no"?>
<!DOCTYPE svg PUBLIC "-//W3C//DTD SVG 1.1//EN" "http://www.w3.org/Graphics/SVG/1.1/DTD/svg11.dtd" >
<!--
2013-9-30: Created.
-->
<svg>
<metadata>
Created by iconfont
</metadata>
<defs>

<font id="iconfont" horiz-adv-x="1024" >
  <font-face
    font-family="iconfont"
    font-weight="500"
    font-stretch="normal"
    units-per-em="1024"
    ascent="896"
    descent="-128"
  />
    <missing-glyph />
    
    <glyph glyph-name="huodong2" unicode="&#58965;" d="M57.344 525.279232c0 16.748544 5.957632 30.921728 17.87904 42.514432 11.916288 11.598848 26.251264 17.394688 42.998784 17.394688l60.880896 0 0-271.53408-60.880896 0c-16.74752 0-31.082496 5.793792-42.998784 17.389568C63.301632 342.639616 57.344 356.815872 57.344 373.561344L57.344 525.279232 57.344 525.279232zM733.774848 774.592512c27.698176 26.412032 52.826112 40.904704 75.370496 43.483136 22.549504 2.576384 42.517504-3.382272 59.915264-17.87904 17.393664-14.495744 32.208896-35.753984 44.448768-63.776768 12.2368-28.023808 22.226944-59.268096 29.955072-93.734912 7.729152-34.466816 13.52704-70.539264 17.393664-108.22656 3.8656-37.687296 5.796864-73.602048 5.796864-107.746304 0-34.143232-2.413568-68.287488-7.245824-102.428672-4.832256-34.143232-11.921408-66.19648-21.262336-96.155648-9.340928-29.952-20.292608-56.201216-32.856064-78.75072-12.565504-22.545408-26.573824-39.30112-42.0352-50.249728-15.461376-10.952704-32.048128-14.815232-49.7664-11.594752-17.713152 3.223552-36.23424 15.783936-55.56224 37.68832-18.681856 21.899264-43.968512 40.100864-75.854848 54.592512-31.889408 14.495744-66.675712 26.735616-104.361984 36.722688-37.687296 9.982976-75.855872 18.035712-114.512896 24.15616-38.652928 6.120448-74.082304 11.595776-106.293248 16.428032-32.214016 4.834304-59.106304 9.50272-80.692224 14.012416-21.5808 4.508672-33.657856 9.981952-36.23424 16.42496L239.977472 590.017536c2.576384 9.018368 12.725248 16.425984 30.4384 22.226944 17.717248 5.797888 40.262656 11.275264 67.64544 16.427008 27.377664 5.154816 58.298368 10.788864 92.765184 16.909312 34.465792 6.119424 69.573632 14.496768 105.326592 25.124864 35.761152 10.62912 70.7072 24.160256 104.848384 40.585216C675.1488 727.725056 706.069504 748.82048 733.774848 774.592512L733.774848 774.592512zM385.895424 182.230016c3.221504-7.730176 7.084032-16.105472 11.597824-25.124864 3.863552-8.379392 9.018368-18.03776 15.461376-28.988416 6.438912-10.953728 14.175232-22.873088 23.191552-35.755008 10.95168-15.4624 22.065152-31.727616 33.335296-48.801792 11.275264-17.072128 19.813376-32.533504 25.609216-46.383104 5.796864-13.8496 7.569408-25.286656 5.312512-34.305024-2.251776-9.018368-11.431936-13.531136-27.538432-13.531136l-55.077888 0c-12.884992 0-24.8064 2.417664-35.75808 7.251968-10.947584 4.832256-21.419008 12.237824-31.403008 22.226944-9.987072 9.982976-20.291584 22.7072-30.920704 38.167552-10.633216 15.4624-22.066176 33.819648-34.306048 55.081984-14.819328 24.481792-25.124864 45.9008-30.925824 64.260096-5.797888 18.364416-9.660416 33.660928-11.593728 45.902848-2.57536 14.173184-2.57536 26.412032 0 36.717568 5.154816-0.641024 11.275264-1.929216 18.359296-3.864576 5.79584-1.288192 12.884992-2.895872 21.257216-4.832256 8.377344-1.934336 18.041856-3.864576 28.992512-5.793792 10.952704-2.582528 20.774912-4.996096 29.473792-7.252992 8.694784-2.249728 16.586752-4.671488 23.675904-7.245824C372.368384 187.385856 379.452416 184.8064 385.895424 182.230016L385.895424 182.230016z"  horiz-adv-x="1024" />

    
    <glyph glyph-name="shijian" unicode="&#59033;" d="M512 859.428571c-262.582857 0-475.428571-212.845714-475.428571-475.428571s212.845714-475.428571 475.428571-475.428571 475.428571 212.845714 475.428571 475.428571S774.582857 859.428571 512 859.428571zM841.069714 310.857143 475.538286 310.857143c0 0-0.036571 0-0.036571 0C475.465143 310.857143 475.428571 310.857143 475.428571 310.857143c-10.093714 0-19.2 4.169143-25.856 10.678857C442.953143 328.155429 438.857143 337.261714 438.857143 347.428571c0 0 0 0.036571 0 0.036571 0 0 0 0.036571 0 0.036571l0 365.531429C438.857143 733.293714 455.094857 749.714286 475.428571 749.714286c20.187429 0 36.571429-16.676571 36.571429-36.681143L512 384l329.069714 0C861.293714 384 877.714286 367.762286 877.714286 347.428571 877.714286 327.241143 861.037714 310.857143 841.069714 310.857143z"  horiz-adv-x="1024" />

    
    <glyph glyph-name="left" unicode="&#59178;" d="M233.922 407.859l483.619 477.26c13.351 13.174 35.001 13.174 48.352 0l24.189-23.864c6.182-6.072 10.013-14.52 10.013-23.862 0-9.342-3.831-17.79-10.008-23.857l-435.266-429.536 435.261-429.524c13.351-13.182 13.351-34.553 0-47.727l-24.189-23.861c-13.351-13.183-35.001-13.183-48.352 0l-483.619 477.251c-6.185 6.070-10.018 14.517-10.018 23.86 0 9.343 3.833 17.79 10.013 23.855z"  horiz-adv-x="1024" />

    
    <glyph glyph-name="touxiang" unicode="&#58999;" d="M512 634.049c-65.127 0-118.037-52.998-118.037-118.037s52.911-118.125 118.037-118.125 118.037 52.998 118.037 118.037-52.911 118.125-118.037 118.125zM512 834c-248.555 0-450-201.445-450-450s201.445-450 450-450c248.555 0 450 201.445 450 450s-201.445 450-450 450zM721.092 148.365c-12.305 0-22.237 9.932-22.237 22.237 0 101.953-82.090 181.758-186.856 181.758s-186.856-79.805-186.856-181.758c0-12.305-9.932-22.237-22.237-22.237s-22.237 9.932-22.237 22.237c0 61.612 24.17 118.916 68.028 161.367 21.533 20.83 46.758 37.002 74.268 47.989-9.229 6.065-17.842 13.096-25.84 21.094-30.674 30.674-47.636 71.543-47.636 114.961 0 43.418 16.875 84.287 47.636 114.961 30.674 30.674 71.543 47.637 114.961 47.637 43.418 0 84.287-16.875 114.961-47.637 30.586-30.762 47.549-71.631 47.549-115.049 0-43.418-16.875-84.287-47.637-114.961-7.998-7.998-16.612-15.029-25.84-21.094 27.51-10.987 52.646-27.158 74.268-47.989 43.857-42.364 68.028-99.668 68.028-161.367-0.088-12.217-10.020-22.148-22.325-22.148z"  horiz-adv-x="1024" />

    
    <glyph glyph-name="zan" unicode="&#58883;" d="M278.972854 105.548725zM146.221031 471.964822c-43.918555 0-82.437905-41.56256-82.437905-88.952466v-352.665703c0-45.406103 36.980717-82.338168 82.437905-82.338167H243.955262V471.964822H146.221031zM943.036045 462.391239c-15.715953 20.817161-39.297789 32.763767-64.708958 32.763767H629.426086c16.82158 19.064457 27.300099 52.741674 27.902173 63.397774l3.703666 15.538372c14.122586 56.339522 11.728886 115.616434-6.970677 171.569169l-6.742012 18.699564c-10.926121 32.754037-42.707109 55.631629-77.274665 55.631629h-2.652774c-45.474216 0-85.366782-38.279737-85.366782-81.928271v-26.015674c0-118.879797-76.688403-212.349642-185.173607-234.874504V-51.992731h471.990668c36.918685 0 69.664208 25.448873 79.58444 61.805623l108.603186 378.706919c7.226103 25.079115 1.983803 52.691805-13.993657 73.871428z"  horiz-adv-x="1024" />

    
    <glyph glyph-name="xia" unicode="&#59241;" d="M919.496992 637.884298H100.402777C58.448397 637.884298 38.082645 606.927339 56.523107 583.328793c25.143008-32.230612 387.072-477.281322 409.65924-504.518876 20.255736-24.440595 68.489521-24.859504 88.728331 0 30.796165 37.841455 390.884496 481.195372 408.724099 503.380628C985.917355 609.872397 957.579636 637.884298 919.496992 637.884298z"  horiz-adv-x="1024" />

    
    <glyph glyph-name="yewu" unicode="&#58898;" d="M913.292-108.34h-794.88c-35.168 0-63.314 27.963-63.314 63.314v858.020c0 35.168 27.963 63.314 63.314 63.314h794.88c35.168 0 63.314-27.963 63.314-63.314v-858.020c0-35.168-27.963-63.314-63.314-63.314zM913.292 756.592h-794.88v-801.774h794.88v801.774zM857.095 264.366h-668.111v428.986h668.111v-428.986zM540.611 433.146l-119.634 119.634v7.021c-7.021 7.021-14.055 7.021-20.994 7.021s-14.055 0-20.994-7.021v-7.021l-119.634-119.634c-14.055-14.055-14.055-27.963 0-42.239 14.055-14.055 27.963-14.055 42.239 0l105.403 105.403 105.403-105.403c14.055-14.055 27.963-14.055 42.239 0 0 14.055 0 35.168-14.055 42.239zM786.808 623.154c0 7.021-7.021 7.021-7.021 7.021h-133.629c-14.055 0-27.963-14.055-27.963-27.963s14.055-27.963 63.314-27.963h14.055l-133.629-133.629c-14.055-14.055-14.055-27.963 0-42.239 14.055-14.055 27.963-14.055 42.239 0l133.629 133.629v-56.332c0-14.055 14.055-27.963 27.963-27.963s27.963 14.055 27.963 27.963v133.629c0 7.021-7.021 7.021-7.021 14.055 0-7.021 0 0 0 0zM610.998 137.926h-428.986v63.314h428.986v-63.314zM793.82 18.181h-611.83v63.314h611.83v-63.314z"  horiz-adv-x="1024" />

    
    <glyph glyph-name="chakan" unicode="&#58891;" d="M509.421 724.809C172.818 724.809 0 385.58 0 385.58S130.41 46.308 509.42 46.308c343.226 0 509.394 337.95 509.394 337.95s-167.493 340.55-509.394 340.55z m0.766-551.266c-123.075 0-212.04 92.775-212.04 212.043 0 119.279 88.97 212.026 212.04 212.026 123.064 0 212.028-92.741 212.028-212.026 0.002-119.268-88.964-212.043-212.028-212.043z m0 339.272c-70.345-0.158-127.224-59.08-127.224-127.23 0-68.113 56.88-127.226 127.224-127.226 70.333 0 127.212 59.113 127.212 127.227 0.001 68.171-56.878 127.364-127.212 127.23z"  horiz-adv-x="1035" />

    
    <glyph glyph-name="shichang" unicode="&#59382;" d="M844.8 112.64H163.84v166.4H79.36v-291.84c0-46.08 38.4-84.48 84.48-84.48H844.8c46.08 0 84.48 38.4 84.48 84.48V279.04H844.8v-166.4zM880.64 801.28c-48.64 51.2-79.36 64-138.24 64H294.4c-35.84 0-81.92-5.12-138.24-64L10.24 614.4H1024l-143.36 186.88zM335.36 573.44H0c0-92.16 74.24-209.92 168.96-209.92 92.16 0 166.4 117.76 166.4 209.92zM855.04 363.52c92.16 0 168.96 117.76 168.96 209.92H686.08c0-92.16 74.24-209.92 168.96-209.92zM504.32 363.52c92.16 0 168.96 117.76 168.96 209.92H335.36c0-92.16 76.8-209.92 168.96-209.92z"  horiz-adv-x="1024" />

    
    <glyph glyph-name="yewu1" unicode="&#59000;" d="M512 896C229.230592 896 0 666.769408 0 384s229.230592-512 512-512 512 229.230592 512 512S794.769408 896 512 896z m149.43232-381.392896c0 24.2688 19.738624 44.005376 43.999232 44.005376h69.525504c24.260608 0 43.997184-19.738624 43.997184-44.005376v-282.492928c0-24.256512-19.738624-43.997184-43.997184-43.997184h-69.525504c-24.262656 0-43.999232 19.748864-43.999232 44.005376V514.607104z m-228.313088 119.32672c0 24.2688 19.738624 44.005376 43.999232 44.005376h69.51936c24.2688 0 44.005376-19.738624 44.005376-44.005376v-401.8176c0-24.256512-19.738624-43.997184-44.005376-43.997184h-69.51936c-24.262656 0-43.999232 19.748864-43.999232 44.005376V633.933824zM204.8 371.53792c0 24.264704 19.738624 44.005376 44.005376 44.005376h69.51936c24.272896 0 44.013568-19.740672 44.013568-44.005376v-139.421696c0-24.256512-19.746816-43.997184-44.013568-43.997184h-69.51936c-24.260608 0-44.005376 19.748864-44.005376 43.997184v139.421696z m614.4-281.475072H205.072384v41.252864H819.2v-41.252864z"  horiz-adv-x="1024" />

    
    <glyph glyph-name="you" unicode="&#58946;" d="M332.263619 861.476571L780.483048 413.257143a48.761905 48.761905 0 0 0 0-68.998095l-448.219429-448.219429A48.761905 48.761905 0 1 0 263.314286-35.011048l68.949333 68.949334 344.795429 344.795428-344.746667 344.844191L263.314286 792.527238A48.761905 48.761905 0 0 0 332.263619 861.476571z"  horiz-adv-x="1024" />

    
    <glyph glyph-name="up" unicode="&#58893;" d="M479.378826 664.725021l-416.087651-507.426938c-10.731452-13.231392-12.865547-31.401691-5.609622-46.767179 7.316899-15.365488 22.804335-25.121353 39.755151-25.182327h832.114326c17.072764-0.060974 32.682148 9.816839 39.999047 25.243301 7.316899 15.426462 5.060855 33.718709-5.792545 46.889127L547.79183 664.968917c-8.414434 10.243658-20.97511 16.158152-34.267476 16.158152-13.231392-0.060974-25.792069-6.097416-34.145528-16.402048z m0 0"  horiz-adv-x="1026" />

    
    <glyph glyph-name="but-down-core-roleuser" unicode="&#58632;" d="M875.386 830.669h-726.773c-46.083 0-83.282-37.199-83.282-83.282v-726.773c0-46.083 37.199-83.282 83.282-83.282h726.773c46.083 0 83.282 37.199 83.282 83.282v726.773c0 46.083-37.199 83.282-83.282 83.282zM867.058 48.374000000000024c0-10.549-8.883-19.433-19.433-19.433h-671.808c-10.549 0-19.433 8.883-19.433 19.433v671.808c0 10.549 8.883 19.433 19.433 19.433h671.808c10.549 0 19.433-8.883 19.433-19.433v-671.808zM431.217 282.11800000000005h-185.441c-9.439 0-17.767-7.773-17.767-17.767v-129.92c0-9.439 7.773-17.768 17.767-17.768h175.447c14.991 0 27.76 12.215 27.76 27.76v120.481c-0.556 9.439-8.329 17.212-17.767 17.212zM431.217 654.667h-185.441c-9.439 0-17.767-7.773-17.767-17.767v-268.167c0-9.439 7.773-17.767 17.767-17.767h185.441c9.439 0 17.767 7.773 17.767 17.767v268.167c-0.556 9.994-8.329 17.767-17.767 17.767zM776.004 419.811h-240.407c-9.439 0-17.768-7.773-17.768-17.768v-267.613c0-9.439 7.773-17.768 17.768-17.768h240.407c9.439 0 17.768 7.773 17.768 17.768v267.613c0 9.994-7.773 17.767-17.768 17.767zM776.004 654.667h-240.407c-9.439 0-17.768-7.773-17.768-17.767v-130.476c0-9.439 7.773-17.767 17.768-17.767h240.407c9.439 0 17.768 7.773 17.768 17.767v130.476c0 9.994-7.773 17.767-17.768 17.767z"  horiz-adv-x="1024" />

    
    <glyph glyph-name="huifu" unicode="&#58885;" d="M835.3 798.4H189.7c-50.9 0-92.2-41.3-92.2-92.2v-553.3c0-50.9 41.3-92.2 92.2-92.2v-92.2l184.4 92.2h461.1c50.9 0 92.2 41.3 92.2 92.2V706.2c0.1 50.9-41.2 92.2-92.1 92.2zM696.9 291.2H328.1c-25.5 0-46.1 20.6-46.1 46.1s20.6 46.1 46.1 46.1H697c25.5 0 46.1-20.6 46.1-46.1s-20.7-46.1-46.2-46.1z m0 184.4H328.1c-25.5 0-46.1 20.6-46.1 46.1s20.6 46.1 46.1 46.1H697c25.5 0 46.1-20.6 46.1-46.1 0-25.4-20.7-46.1-46.2-46.1z"  horiz-adv-x="1024" />

    
    <glyph glyph-name="wenjian" unicode="&#59014;" d="M732.630746 896H125.83424A55.660874 55.660874 0 0 1 70.620631 840.103724v-912.183908A55.660874 55.660874 0 0 1 125.83424-128h772.331402A55.660874 55.660874 0 0 1 953.379251-72.103724V672.532598zM318.852355 570.250299h165.546667a27.954023 27.954023 0 0 0 0-55.896276H318.852355a27.954023 27.954023 0 0 0 0 55.896276zM705.029826 179.2H318.852355a27.954023 27.954023 0 0 0 0 55.896276H705.029826a27.954023 27.954023 0 0 0 0-55.896276z m0 167.571126H318.852355a27.954023 27.954023 0 0 0 0 55.896276H705.029826a27.954023 27.954023 0 0 0 0-55.896276zM953.379251 667.247816H783.889596a57.061517 57.061517 0 0 0-56.496551 57.226299V896z m0 0"  horiz-adv-x="1024" />

    
    <glyph glyph-name="pdf" unicode="&#58889;" d="M127.212308 869.612308a39.384615 39.384615 0 0 1-36.627693-36.627693v-905.846153a39.384615 39.384615 0 0 1 36.627693-36.627693h770.363077a39.384615 39.384615 0 0 1 36.627692 36.627693V655.753846L720.344615 869.612308zM720.344615 869.612308v-176.049231a39.384615 39.384615 0 0 1 39.384616-39.384615h176.049231zM728.221538 273.329231a190.621538 190.621538 0 0 0-111.852307 46.08 1068.504615 1068.504615 0 0 1-179.987693-58.289231c-46.867692-84.283077-90.584615-126.818462-128.393846-126.818462a39.384615 39.384615 0 0 0-22.843077 6.301539 44.898462 44.898462 0 0 0-25.6 41.353846c0 13.784615 3.150769 51.987692 146.51077 114.609231a1092.923077 1092.923077 0 0 1 78.76923 189.44c-18.116923 36.627692-57.501538 126.818462-30.326153 172.898461a48.049231 48.049231 0 0 0 46.867692 24.418462 50.018462 50.018462 0 0 0 39.384615-19.692308c19.692308-27.569231 18.116923-85.464615-7.483077-171.323077A461.981538 461.981538 0 0 1 630.153846 369.821538a504.910769 504.910769 0 0 0 95.310769 10.633847c70.892308 0 81.526154-35.052308 78.769231-55.138462-0.787692-51.987692-50.412308-51.987692-76.012308-51.987692z m-423.384615-94.523077h4.332308a97.673846 97.673846 0 0 1 50.018461 42.929231 118.153846 118.153846 0 0 1-54.350769-42.929231z m201.255385 458.436923h-4.726154a9.058462 9.058462 0 0 1-5.907692 0 125.636923 125.636923 0 0 1 9.058461-78.769231 130.363077 130.363077 0 0 1 1.575385 78.769231z m10.633846-221.735385v-3.150769q-20.086154-53.169231-45.292308-103.975385h3.150769V305.230769a900.726154 900.726154 0 0 0 102.793847 30.72h4.726153a456.861538 456.861538 0 0 0-65.772307 79.556923z m205.587692-81.132307a170.535385 170.535385 0 0 1-39.384615-3.15077 127.606154 127.606154 0 0 1 45.292307-12.20923 66.166154 66.166154 0 0 1 30.326154 3.150769c-0.393846 4.726154-6.301538 12.209231-36.627692 12.209231z"  horiz-adv-x="1024" />

    
    <glyph glyph-name="jishu" unicode="&#59571;" d="M348.16 18.773333h329.386667c10.24 0 20.48-5.12 25.6-15.36 5.12-10.24 5.12-20.48 0-30.72-5.12-10.24-15.36-15.36-25.6-15.36H348.16c-10.24 0-20.48 5.12-25.6 15.36-5.12 10.24-5.12 20.48 0 30.72 3.413333 8.533333 13.653333 15.36 25.6 15.36zM158.72 810.666667h706.56c18.773333 0 37.546667-8.533333 51.2-22.186667 13.653333-13.653333 22.186667-32.426667 22.186667-51.2v-585.386667c0-18.773333-8.533333-37.546667-22.186667-51.2-13.653333-13.653333-32.426667-22.186667-51.2-22.186666H158.72c-18.773333 0-37.546667 8.533333-51.2 22.186666-13.653333 13.653333-22.186667 32.426667-22.186667 51.2V737.28c0 18.773333 8.533333 37.546667 22.186667 51.2 13.653333 13.653333 30.72 22.186667 51.2 22.186667z m0-73.386667v-414.72h706.56V737.28H158.72zM512 163.84c13.653333 0 25.6 6.826667 32.426667 18.773333 6.826667 11.946667 6.826667 25.6 0 35.84-6.826667 11.946667-18.773333 18.773333-32.426667 18.773334-20.48 0-35.84-17.066667-35.84-35.84 0-20.48 15.36-37.546667 35.84-37.546667z m0 0M416.426667 641.706667c3.413333-5.12 6.826667-10.24 5.12-17.066667 0-5.12-1.706667-10.24-5.12-13.653333l-80.213334-80.213334 80.213334-80.213333c3.413333-3.413333 6.826667-8.533333 6.826666-13.653333 0-6.826667-1.706667-11.946667-6.826666-15.36-5.12-3.413333-11.946667-6.826667-18.773334-6.826667-5.12 0-10.24 1.706667-13.653333 6.826667l-97.28 95.573333c-3.413333 3.413333-6.826667 8.533333-6.826667 15.36 0 5.12 1.706667 10.24 6.826667 13.653333l97.28 95.573334c3.413333 3.413333 10.24 6.826667 15.36 5.12 5.12 1.706667 11.946667-1.706667 17.066667-5.12zM527.36 631.466667c1.706667 5.12 6.826667 10.24 11.946667 13.653333 5.12 3.413333 11.946667 3.413333 18.773333 1.706667 6.826667-1.706667 10.24-6.826667 13.653333-11.946667 3.413333-6.826667 3.413333-11.946667 1.706667-17.066667L501.76 435.2c-1.706667-5.12-6.826667-10.24-11.946667-13.653333-5.12-3.413333-11.946667-3.413333-18.773333-1.706667-5.12 1.706667-10.24 6.826667-13.653333 11.946667-3.413333 5.12-3.413333 11.946667-1.706667 17.066666l71.68 182.613334zM750.933333 527.36c0-6.826667-1.706667-11.946667-6.826666-15.36L650.24 418.133333c-5.12-5.12-10.24-6.826667-17.066667-6.826666-5.12 0-11.946667 1.706667-15.36 6.826666-3.413333 5.12-5.12 10.24-5.12 15.36 0 6.826667 1.706667 10.24 5.12 13.653334l80.213334 80.213333-80.213334 78.506667c-10.24 10.24-11.946667 20.48-5.12 30.72 3.413333 5.12 8.533333 6.826667 17.066667 6.826666 6.826667 0 13.653333-1.706667 18.773333-6.826666l97.28-95.573334c3.413333-3.413333 5.12-6.826667 5.12-13.653333z"  horiz-adv-x="1024" />

    
    <glyph glyph-name="touxiang1" unicode="&#59600;" d="M828.800122-18.303429A509.823681 509.823681 0 0 0 512.00032-127.99936a509.823681 509.823681 0 0 0-316.799802 109.695931 320.0638 320.0638 0 0 0 633.599604 0zM382.080401 297.472374a384.831759 384.831759 0 0 1-241.919849-265.407834 511.99968 511.99968 0 1 0 743.743536 0 384.831759 384.831759 0 0 1-242.047849 265.407834 223.99986 223.99986 0 1 1-259.775838 0zM512.00032 640.00016a159.9999 159.9999 0 1 0 0-319.9998 159.9999 159.9999 0 0 0 0 319.9998z"  horiz-adv-x="1024" />

    
    <glyph glyph-name="talk-fill" unicode="&#58884;" d="M787.612903 415.483871c0-52.645161-10.83871-102.709677-30.451613-148.129032-2.064516-5.16129-4.645161-10.322581-7.225806-15.483871-5.677419-11.870968-12.387097-23.741935-19.612903-35.096774-1.548387-2.064516-2.580645-4.129032-4.129033-6.193549-69.677419-106.83871-192.516129-178.064516-332.387096-178.064516-20.645161 0-41.806452 1.548387-62.451613 4.645161-34.580645-26.322581-77.935484-57.290323-129.032258-91.870967-4.645161-3.612903-10.322581-5.16129-16-5.161291s-11.870968 2.064516-17.032258 5.67742c-9.290323 7.741935-13.419355 20.645161-9.290323 32l36.645161 105.806451C73.290323 153.29032299999994 0 277.16129 0 416c0 211.612903 176.516129 384 393.806452 383.483871 28.387097 0 55.741935-2.580645 82.580645-8.258065 8.774194-2.064516 18.064516-4.129032 26.838709-6.709677 11.870968-3.096774 23.741935-7.225806 35.096775-11.354839 6.709677-2.580645 13.419355-5.16129 20.129032-8.258064 135.225806-60.903226 229.16129-194.580645 229.16129-349.419355zM930.064516 119.22580600000003c4.645161-9.290323 2.580645-21.16129-5.16129-28.903225-4.129032-3.612903-9.290323-6.193548-14.451613-6.709678-5.16129-0.516129-10.322581 0-14.451613 3.096774-48 25.290323-89.290323 48-122.322581 67.612904-10.83871-3.096774-21.677419-5.16129-33.032258-7.225807 10.83871 12.903226 20.645161 26.322581 29.935484 40.258065 1.548387 2.580645 3.096774 4.645161 4.645161 7.225806 2.580645 4.129032 5.16129 7.741935 7.225807 11.870968 5.16129 9.290323 10.322581 18.580645 14.967742 27.870968 3.096774 5.677419 5.677419 11.870968 8.258064 17.548387 22.193548 51.096774 34.580645 107.870968 34.580646 167.225806 0 142.967742-70.709677 269.935484-180.129033 348.903226-20.645161 14.967742-42.322581 27.870968-65.548387 39.225806 16 4.129032 32.516129 7.225806 49.548387 8.774194 190.451613 21.677419 361.806452-111.483871 382.967742-296.774194 13.935484-121.806452-38.193548-237.419355-139.354839-310.709677l42.322581-89.290323z"  horiz-adv-x="1029" />

    
    <glyph glyph-name="shouye1" unicode="&#58886;" d="M566.192 844.056a76.944 76.944 0 0 1-103.392 0L44.72 447.072a38.568 38.568 0 0 1 51.648-57.288l6.648 6.312V-18.24000000000001a77.136 77.136 0 0 1 77.136-77.232h224.472v232.224a54.312 54.312 0 0 0 54.336 54.384h105.624a54.312 54.312 0 0 0 54.336-54.384v-232.224h229.8a77.136 77.136 0 0 1 77.16 77.232V391.032c17.136-15.504 41.448-14.328 55.704 1.56a38.568 38.568 0 0 1-2.784 54.48L566.192 844.032z"  horiz-adv-x="1024" />

    
    <glyph glyph-name="fl-renyuan" unicode="&#58631;" d="M512.02346667 864.63146667c-163.03360001 0-295.77813332-132.6944-295.77813334-295.77706667 0-162.98453332 132.64746667-295.73013334 295.77813334-295.73013334 163.08159999 0 295.82506667 132.74453333 295.82506666 295.73013334 0 163.08266668-132.74346667 295.77706667-295.82506666 295.77706667zM739.9936 279.87306666999996c-63.0208-49.81653333-141.50186667-80.68160001-227.97013333-80.6816-86.46933333 0-164.90026667 30.96-228.06613334 80.6816C164.37333332 203.73759999000004 81.11039999 70.03520001000004 69.6736-84.81493333000003c41.86986667-5.69173333 116.3776-11.81653332 222.70506666-11.81653334h439.09653334c106.37653333 0 180.93120001 6.1248 222.8512 11.81653334-11.34293334 154.94826667-94.60479999 288.55253333-214.3328 364.688z"  horiz-adv-x="1024" />

    
    <glyph glyph-name="yewu2" unicode="&#58887;" d="M755.6 304.1v-45.7c2.2-22.9-14.6-43.2-37.5-45.5-22.9-2.2-43.2 14.6-45.5 37.5-0.3 2.7-0.3 5.4 0 8v45.7H351.4v-45.7c2.2-22.9-14.6-43.2-37.5-45.5-22.9-2.2-43.2 14.6-45.5 37.5-0.3 2.7-0.3 5.4 0 8v45.7H97.5v-217c0-57.1 41.5-102.8 93.3-102.8h642.5c51.8 0 93.3 45.7 93.3 102.8v217h-171zM310 412.5c23.7-0.7 42.3-20.6 41.5-44.3 0-0.5 0-0.9-0.1-1.4h321.3c0.5 23.4 18.2 42.9 41.5 45.7 23.7-0.7 42.3-20.6 41.5-44.3 0-0.5 0-0.9-0.1-1.4h170.9V538.1c0 57.1-41.5 102.8-93.3 102.8H724.5v40c0 57.1-41.5 102.8-93.3 102.8H392.9c-51.8 0-93.3-45.7-93.3-102.8v-45.7H190.8c-51.8-0.1-93.3-45.8-93.3-102.8v-171.3c57 0 114 5.8 170.9 5.8 0.6 23.4 18.3 42.9 41.6 45.6z m81.2 308.2c0.6 0 1.1 0.1 1.7 0.1h238.3c20.6-0.6 36.9-17.7 36.4-38.3 0-0.6 0-1.1-0.1-1.7v-45.7H356.6v45.7c-1.5 20.6 14 38.5 34.6 39.9z m0 0"  horiz-adv-x="1024" />

    
    <glyph glyph-name="wendang" unicode="&#58888;" d="M100.352 896C80.65024 896 61.44 876.544 61.44 857.6v-947.2c0-19.456 19.72224-38.4 38.912-38.4h817.8688c19.72224 0 38.92224 19.456 38.92224 38.4V671.744L730.368 895.488H100.352V896zM736.22528 896v-179.2c0-19.456 19.712-38.4 38.912-38.4h182.15936L736.21504 896zM256 462.848h62.976l71.168-284.672h2.048l74.752 284.672h58.368l74.752-284.672h2.048l71.168 284.672h62.976L630.784 97.28h-59.392l-74.24 282.112h-2.048L420.864 97.28h-59.904z"  horiz-adv-x="1024" />

    


  </font>
</defs>
</svg>
